PathFileType	4	(X/Y/Z)	C:\Users\u0145647\OneDrive - KU Leuven\KU Leuven\c3d2osim\CP4\T0\Data\Processed\ViconC3D_CP4_2\CP4_T0_15_gapFilled.trc
DataRate	CameraRate	NumFrames	NumMarkers	Units	OrigDataRate	OrigDataStartFrame	OrigNumFrames
100.000000	100.000000	9	47	mm	100.000000	306	488
Frame#	Time	C7			T10			CLAV			STRN			LSHO			RSHO			RBAK			LASI			RASI			LPSI			RPSI			LLAT			RLAT			LF1			LF2			LF3			LTHI			LKNE			LMEK			RF1			RF2			RF3			RTHI			RKNE			RMEK			LT1			LT2			LT3			LTIB			LANK			LMM			RT1			RT2			RT3			RTIB			RANK			RMM			LHEE			LSTL			LLCA			LTOE			LCM5			RHEE			RSTL			RLCA			RTOE			RCM5
		X1	Y1	Z1	X2	Y2	Z2	X3	Y3	Z3	X4	Y4	Z4	X5	Y5	Z5	X6	Y6	Z6	X7	Y7	Z7	X8	Y8	Z8	X9	Y9	Z9	X10	Y10	Z10	X11	Y11	Z11	X12	Y12	Z12	X13	Y13	Z13	X14	Y14	Z14	X15	Y15	Z15	X16	Y16	Z16	X17	Y17	Z17	X18	Y18	Z18	X19	Y19	Z19	X20	Y20	Z20	X21	Y21	Z21	X22	Y22	Z22	X23	Y23	Z23	X24	Y24	Z24	X25	Y25	Z25	X26	Y26	Z26	X27	Y27	Z27	X28	Y28	Z28	X29	Y29	Z29	X30	Y30	Z30	X31	Y31	Z31	X32	Y32	Z32	X33	Y33	Z33	X34	Y34	Z34	X35	Y35	Z35	X36	Y36	Z36	X37	Y37	Z37	X38	Y38	Z38	X39	Y39	Z39	X40	Y40	Z40	X41	Y41	Z41	X42	Y42	Z42	X43	Y43	Z43	X44	Y44	Z44	X45	Y45	Z45	X46	Y46	Z46	X47	Y47	Z47

306	3.05	2110.1	1395.3	-141.78	2076.6	1135.8	-182.59	2222.7	1306.5	-127.49	2249.5	1157.7	-131.25	2212	1372.1	-337.52	2114.4	1336.4	47.754	2046.9	1309.4	-42.151	2288.1	887.77	-227.26	2235.6	899.44	-30.254	2104.7	902.31	-203.15	2082.2	905.04	-132.34	2231.3	949.51	-289.96	2144.3	953.37	-4.8559	2232.3	610.09	-271.54	2230.3	655.47	-282.8	2201.6	610.23	-288.14	NaN	NaN	NaN	2154.5	410.82	-238.8	NaN	NaN	NaN	NaN	NaN	NaN	2282.6	665.57	21.454	2223.8	641.34	12.3	2302.3	566.86	52.143	2386.7	475.5	-21.214	NaN	NaN	NaN	2007.4	298.86	-277.02	2062.8	304.34	-251.59	2031.3	337.55	-275.85	2009.3	209.09	-287.93	1837	131.75	-266.25	1840.6	136.37	-175.83	2408.9	326.64	-4.6952	2419.6	374.33	-19.201	2372.4	364.32	-3.1315	2444.6	261.95	35.081	2470.3	84.078	-25.536	2475.8	107.13	-110.15	1779.4	145.01	-225.71	1823.2	109.46	-181.59	1825	106.18	-260.13	1924.9	47.964	-209.39	1914.5	42.61	-257.8	2421.8	66.179	-66.692	2484.1	72.596	-108.32	2483.8	62.543	-30.042	2601.5	92.555	-62.169	2586	69.596	-13.611
307	3.06	2125.6	1390.7	-139.42	2095.5	1130.7	-181.86	2237.3	1303.1	-126.39	2268	1155.2	-130.13	2225.9	1368.6	-337	2131.6	1331.2	49.501	2063.7	1303.7	-39.98	2309.9	883.66	-224.56	2256.5	896.72	-28.062	2125.6	899.71	-201.54	2103	903.3	-130.79	2253.3	945.06	-288.02	2164.5	950.97	-2.5047	2249.3	606.01	-269.51	2247.6	651.29	-280.39	2218.8	606.7	-286.48	NaN	NaN	NaN	2168.8	407.84	-237.47	NaN	NaN	NaN	NaN	NaN	NaN	2301.3	662.29	24.187	2242.7	640.79	13.611	2317.3	562.64	52.71	2404.3	472.25	-20.238	NaN	NaN	NaN	2019.1	299.86	-276.42	2074.7	303.64	-250.8	2044.1	337.7	-274.63	2019	210.47	-287.65	1844.5	136.97	-266.33	1847.8	141.31	-176.31	2425.2	322.62	-5.8652	2436.2	370.46	-19.137	2388.4	360.41	-4.5719	2459.1	256.83	33.856	2487.2	80.682	-29.414	2493.8	104.59	-113.85	1787.2	152.57	-226.24	1829.4	114.96	-182.29	1831.3	111.88	-260.6	1927	47.757	-209.28	1917.3	43.611	-257.78	2438.7	63.06	-71.957	2501.7	69.865	-112.31	2500.4	58.717	-34.356	2618.5	88.368	-64.222	2602	64.658	-16.182
308	3.07	2141.2	1386.4	-136.6	2114.8	1126	-180.78	2254.3	1300.6	-124.98	2286.9	1153	-128.78	2240.2	1365.3	-336.37	2148.7	1326	51.365	2080.7	1297.9	-37.604	2330.7	879.13	-222	2276.7	893.74	-25.464	2147	897.43	-199.99	2124.2	901.68	-129.13	2275.3	941.12	-285.92	2184.8	948.29	-0.26171	2266.9	602.2	-267.6	2265.7	647.54	-278.22	2236.3	603.5	-283.88	NaN	NaN	NaN	2183.9	404.99	-236.61	NaN	NaN	NaN	NaN	NaN	NaN	2320.1	659.02	26.92	2260.9	637.51	13.912	2333.8	559.62	52.966	2421.7	468.42	-19.727	NaN	NaN	NaN	2031.7	301.13	-275.7	2087.5	303.33	-250.26	2057.7	338.46	-273.85	2028.8	212.19	-287.85	1852.6	142.62	-266.55	1856.4	146.2	-176.61	2440.2	318.34	-6.9839	2452.4	366.31	-19.629	2402.6	355.82	-7.2504	2472.1	251.39	32.085	2498.5	74.861	-33.532	2507	100.2	-116.96	1796.3	160.54	-226.31	1836.8	120.92	-182.65	1838.5	117.95	-260.93	1928.7	47.417	-208.8	1918.8	43.858	-257.62	2450.9	59.507	-76.113	2514	65.082	-115.59	2511.4	52.836	-38.091	2631	81.258	-66.55	2613.3	57.196	-19.11
309	3.08	2157.8	1382.9	-134.36	2135	1121.7	-179.83	2271.3	1298.1	-123.57	2306	1151.3	-127.2	2254.7	1362.3	-335.37	2166	1321.3	53.302	2098.1	1292.3	-35.636	2351.6	875.01	-219.6	2297.5	890.83	-22.789	2168.1	895.37	-198.21	2144.8	900.12	-127.48	2296.6	937.37	-283.94	2205.7	945.41	2.2286	2284.8	598.75	-265.9	2283.9	644.14	-276.16	2254.5	600.35	-282.58	NaN	NaN	NaN	2200	402.65	-236.27	NaN	NaN	NaN	NaN	NaN	NaN	2338.9	655.75	29.652	2280.8	634.71	13.649	2351.3	556.32	52.843	2439	464.69	-19.424	NaN	NaN	NaN	2045.1	302.87	-275.29	2101	303.31	-250.27	2071.9	339.59	-273.55	2039.9	214.71	-288.79	1862.1	148.45	-266.64	1866.4	151.29	-176.73	2453.8	313.82	-9.0291	2467.7	361.44	-20.333	2417.1	352.33	-9.5024	2482.8	245.56	29.925	2507.3	72.355	-34.487	2516.4	94.553	-119.29	1807	168.53	-226.02	1845.7	126.82	-182.8	1846.7	124.23	-260.95	1931	46.844	-208.55	1921.8	44.64	-257.86	2456.8	60.708	-76.619	2519.9	61.034	-117.29	2517.5	48.824	-39.526	2638.4	67.905	-69.979	2619.1	45.398	-21.814
310	3.09	2173	1379	-133.66	2155.3	1117.2	-177.41	2288.5	1296	-121.94	2325.6	1149.9	-125.58	2269.7	1359.4	-334.52	2183.6	1317.2	55.469	2115.6	1286.9	-33.189	2372.1	871.12	-216.9	2317.9	888.04	-19.839	2188.7	894.13	-195.97	2164.6	899.23	-125.46	2317.9	934.21	-282.08	2227.1	942.58	5.2289	2302.7	595.74	-264.05	2302	641.09	-273.59	2272.4	597.82	-280.9	NaN	NaN	NaN	2216.3	400.17	-236.23	NaN	NaN	NaN	NaN	NaN	NaN	2355.9	652.86	30.323	2300.1	634.56	14.008	2368.3	551.42	50.815	2458.4	463.46	-18.989	NaN	NaN	NaN	2059.3	304.75	-275.51	2115.6	303.43	-251.03	2087.1	340.48	-273.29	2051.8	216.64	-290.08	1872.8	154.15	-266.88	1877.9	155.89	-177.29	2468.6	314.67	-10.993	2485.8	361.13	-21.074	2434	355.34	-12.858	2492.9	244.45	28.677	2507.9	72.245	-34.783	2516.4	93.613	-119.8	1819.2	176.93	-225.93	1856	132.97	-183.22	1856.2	130.62	-261.38	1933.6	46.388	-208.45	1924.8	45.225	-257.86	2456.9	62.276	-75.783	2518.3	59.631	-117.51	2517.5	48.135	-39.768	2638.9	58.721	-74.042	2619.8	39.035	-24.781
311	3.1	2188.9	1375.6	-131.01	2175.7	1114.1	-176.34	2305.5	1294.8	-120.27	2344.8	1149.1	-123.98	2284.7	1356.8	-333.52	2201.1	1313.2	57.708	2133.2	1282.1	-30.887	2391.7	867.77	-214.11	2337.5	885.64	-16.41	2208.4	893.43	-193.82	2184.1	898.71	-123.12	2339.2	931.45	-280.2	2247.6	939.76	8.2191	2320.4	593.11	-262.22	2320	638.44	-271.36	2290	595.02	-278.71	NaN	NaN	NaN	2234	397.85	-236.59	NaN	NaN	NaN	NaN	NaN	NaN	2372.8	649.97	30.993	2319.4	634.41	14.367	2384.3	546.69	45.565	2483.6	468.29	-20.177	NaN	NaN	NaN	2074.4	306.74	-275.87	2131	303.98	-252.17	2102.6	342.4	-273.9	2063.9	220.38	-293.24	1885.2	160.18	-267.43	1891.3	160.54	-178.51	2484.8	320.08	-10.568	2504.7	365.16	-22.634	2452.4	362.58	-12.777	2505.8	249.83	29.084	2509.8	73.383	-34.856	2516.3	94.796	-120.15	1833.6	184.96	-226.34	1868.5	138.9	-184.27	1867.9	136.96	-262.39	1936.7	46.102	-208.38	1928.3	46.14	-257.62	2457.9	63.656	-75.402	2518.6	59.603	-118.04	2518.4	48.687	-40.224	2638.2	57.566	-76.166	2620.4	38.829	-25.594
312	3.11	2205.2	1373	-128.25	2195.8	1111.5	-175.27	2322.6	1294.3	-118.49	2363.9	1148.8	-122.53	2299.9	1355	-332.58	2218.7	1310	60.021	2151	1278.2	-28.636	2410.7	865.34	-211.47	2356.8	884.36	-13.45	2227.7	892.63	-192.33	2203.9	898.27	-121.27	2360.2	929.16	-278.24	2267.3	937.83	10.865	2338.3	591.11	-260.86	2337.9	636.39	-269.51	2308.2	593.25	-277.81	NaN	NaN	NaN	2253.1	396.39	-237.22	NaN	NaN	NaN	NaN	NaN	NaN	2393.5	650.38	29.588	2338.7	634.27	14.726	2409.1	552.19	47.544	2508.8	473.12	-22.636	NaN	NaN	NaN	2090.7	309.41	-276.26	2148.1	304.46	-253.61	2120.2	343.95	-273.96	2079.3	223.12	-295.61	1900.4	165.1	-268.96	1906.7	164.23	-180.2	2501.2	324.35	-10.058	2522.8	368.76	-23.847	2471.2	368.58	-10.86	2521.3	253.28	29.352	2513.5	73.496	-35.079	2520.3	95.141	-120.02	1850.4	192.21	-227.94	1883	144.04	-186.37	1882	142.54	-264.31	1940.8	45.536	-208.49	1932.9	46.3	-257.85	2461.5	65.747	-74.694	2521.7	59.001	-118.36	2521.4	48.381	-40.196	2641.2	54.383	-75.217	2622.5	36.326	-22.131
313	3.12	2221.3	1371.9	-127.08	2215.2	1109.4	-172.99	2339.9	1294.3	-116.92	2382.8	1148.9	-121.12	2315.2	1353.6	-331.44	2236.1	1307.6	62.163	2168.8	1274.6	-26.262	2429.1	863.56	-209.27	2376.1	883.94	-10.784	2246.9	892.07	-191.36	2223.4	897.81	-120	2380.6	927.5	-276.36	2286.1	936.38	12.396	2356.5	589.55	-260.02	2355.8	634.74	-268.35	2325.8	591.7	-276.42	NaN	NaN	NaN	2273.3	394.54	-237.21	NaN	NaN	NaN	NaN	NaN	NaN	2418.6	653.38	28.896	2358	634.12	15.085	2438.6	557.68	51.067	2530.3	474.94	-24.46	NaN	NaN	NaN	2109.6	311	-276.56	2166.3	305.19	-253.85	2139.9	344.74	-274.12	2096.7	225.72	-298.27	1918.5	168.63	-270.77	1923.5	166.97	-182.47	2518.1	324.98	-10.496	2540.2	369.04	-24.83	2491.4	370.78	-9.4035	2537.5	253.77	28.531	2516.2	73.248	-36.109	2523.8	94.52	-120.75	1869.8	198.26	-230.97	1899.1	148.52	-188.88	1898.9	146.94	-267.15	1946.5	44.822	-208.97	1939.7	46.939	-259.01	2464.6	67.469	-74.541	2523.6	58.147	-118.12	2524.5	47.951	-40.268	2645.2	52.886	-73.51	2624.2	34.984	-19.753
314	3.13	2238.3	1369.2	-123.94	2234.2	1108	-170.53	2357	1294.3	-115.27	2401.5	1149.2	-119.9	2330.8	1352.9	-330.03	2253.5	1306	64.26	2187	1272.1	-23.633	2447.4	862.27	-207.4	2395.9	884.07	-8.6927	2265.7	890.99	-189.83	2242.9	897.38	-118.86	2399.7	926.35	-274.36	2305.5	936.12	13.353	2375.2	588.29	-259.4	2373.9	633.54	-267.46	2344.3	590.24	-275.71	NaN	NaN	NaN	2294.4	392.24	-237.08	NaN	NaN	NaN	NaN	NaN	NaN	2437.3	654.21	28.152	2377.3	633.97	15.444	2463.8	560.59	53.133	2549.1	473.67	-26.078	NaN	NaN	NaN	2130.2	311.72	-277.98	2187.6	305.06	-255.66	2161	345.82	-275.08	2117	226.56	-300.15	1938.5	171.22	-273.34	1942.1	168.74	-185.21	2534.1	322.55	-11.847	2556.9	366.04	-27.415	2509.7	369.05	-8.8491	2553.3	249.52	25.094	2518.9	72.999	-37.14	2525.5	93.156	-122.46	1891.2	203.64	-234.49	1917	152.36	-191.76	1917.8	150.26	-269.74	1953.1	44.822	-209.55	1947.4	46.147	-258.39	2466.1	68.488	-74.923	2524.4	57.226	-119.75	2525.6	48.115	-41.545	2646.1	51.98	-75.799	2625	35.522	-21.074
